# xmcd
#
# Track frame offsets:
#	150
#	11687
#	37976
#	59946
#	83788
#	106010
#	138312
#
# Disc length: 2308 seconds
#
# Revision: 1
# Processed by: cddbd v1.5.2PL0 Copyright (c) Steve Scherf et al.
# Submitted via: audiograbber 1.83.01
#
DISCID=55090207
DTITLE=Jeff Beck - Live At The Record Plant San Francisco 1968
DYEAR=2019
DGENRE=Blues
TTITLE0=Intro - You Shook Me
TTITLE1=Let Me Love You
TTITLE2=Morning Dew
TTITLE3=Jeff's Boogie
TTITLE4=Hi Ho Silverlining
TTITLE5=The Sun Is Shining
TTITLE6=Blues Deluxe
EXTD=San Francisco 1968
EXTT0=
EXTT1=
EXTT2=
EXTT3=
EXTT4=
EXTT5=
EXTT6=
PLAYORDER=
